<svg width="19" height="19" xmlns="http://www.w3.org/2000/svg">
 <defs>
  <style>.cls-1{fill:#313131;}.cls-2,.cls-3,.cls-4{fill:none;}.cls-3{stroke:#f0f;}.cls-3,.cls-4{stroke-miterlimit:10;}.cls-4{stroke:#a9a9a9;stroke-width:0.59px;}</style>
 </defs>
 <g>
  <g id="svg_1">
   <path class="cls-4" d="m2.41195,15.42148s1.47,-2.93 7,-2.93s7,2.93 7,2.93m-14,-11.73s1.47,2.93 7,2.93s7,-2.93 7,-2.93m-6.4,-3.22a12.11,12.11 0 0 1 0,18.17m-1.17,-18.17a12.11,12.11 0 0 0 0,18.17m9.67,-9.08l-18.17,0m9.07,-9.09l0,18.17m0,-18.2a9.12,9.12 0 1 1 -9.1,9.11a9.12,9.12 0 0 1 9.1,-9.11z" id="svg_4"/>
  </g>
 </g>
</svg>