<svg width="290" height="45" viewBox="0 0 290 45" xmlns="http://www.w3.org/2000/svg">
 <style type="text/css">
	.st1{fill:#FFFFFF;}
	.st2{fill:#00CF8B;}
	.st3{fill:#A9A9A9;}</style>
 <g>
  <g id="svg_15">
   <path id="svg_2" d="m118.3,7.299999l6.2,0l11.9,19.1l0.1,0l0,-19.1l5.9,0l0,28.5l-6.3,0l-11.8,-19.1l-0.1,0l0,19.1l-5.9,0l0,-28.5z" class="st1"/>
   <path id="svg_3" d="m144.1,7.299999l21.3,0l0,5.3l-15.1,0l0,6.1l13.8,0l0,4.9l-13.8,0l0,7l15.4,0l0,5.3l-21.6,0l0,-28.6z" class="st1"/>
   <path id="svg_4" d="m175.4,12.499999l-8.6,0l0,-5.2l23.4,0l0,5.3l-8.5,0l0,23.2l-6.3,0l0,-23.3z" class="st1"/>
   <path id="svg_5" d="m202.4,6.599999c8.8,0 14,6.6 14,15.1c0,8.2 -5.2,14.8 -14,14.8s-14,-6.6 -14,-14.8c0,-8.5 5.1,-15.1 14,-15.1zm0,24.6c5.6,0 7.8,-4.8 7.8,-9.5c0,-5 -2.1,-9.8 -7.8,-9.8s-7.8,4.8 -7.8,9.8c0,4.7 2.1,9.5 7.8,9.5z" class="st1"/>
   <path id="svg_6" d="m231.5,6.599999c8.8,0 14,6.6 14,15.1c0,8.2 -5.2,14.8 -14,14.8s-14,-6.6 -14,-14.8c0,-8.5 5.2,-15.1 14,-15.1zm0,24.6c5.6,0 7.8,-4.8 7.8,-9.5c0,-5 -2.1,-9.8 -7.8,-9.8s-7.8,4.8 -7.8,9.8c0.1,4.7 2.2,9.5 7.8,9.5z" class="st1"/>
   <path id="svg_7" d="m247,7.299999l6.3,0l0,23.2l13.9,0l0,5.3l-20.2,0l0,-28.5z" class="st1"/>
   <path id="svg_8" d="m75.9,12.499999l-8.6,0l0,-5.2l23.4,0l0,5.3l-8.6,0l0,23.2l-6.3,0l0,-23.3l0.1,0z" class="st1"/>
   <path id="svg_9" d="m102.8,6.599999c8.8,0 14,6.6 14,15.1c0,8.2 -5.2,14.8 -14,14.8s-14,-6.6 -14,-14.8c0,-8.5 5.2,-15.1 14,-15.1zm0,24.6c5.6,0 7.7,-4.8 7.7,-9.5c0,-5 -2.1,-9.8 -7.8,-9.8s-7.7,4.8 -7.7,9.8c0.1,4.7 2.2,9.5 7.8,9.5z" class="st1"/>
   <path id="svg_10" d="m56.4,6.499999c-5.2,0 -10.7,2.8 -10.7,8.6c0,5.3 4.3,7 8.5,8.1s8.5,1.6 8.5,4.7c0,2.9 -3.3,3.5 -5.6,3.5c-3.3,0 -6.3,-1.5 -6.3,-5.3l-6.1,0c-0.1,7.1 5.8,10.2 12.1,10.2c7.8,0 11.9,-3.9 11.9,-9.2c0,-6.5 -6.4,-7.8 -8.5,-8.3c-7.2,-1.8 -8.5,-2.1 -8.5,-4.3c0,-2.4 2.3,-3.2 4.3,-3.2c1.5,-0.1 3,0.3 4.3,1.2l7,0c-1.4,-4.2 -6,-6 -10.9,-6z" class="st1"/>
   <path id="svg_11" d="m281.9,18.999999c-7.1,-1.8 -8.5,-2.1 -8.5,-4.3c0,-2.4 2.3,-3.2 4.3,-3.2c3,0 5.4,0.9 5.6,4.3l6.1,0c0,-6.6 -5.5,-9.2 -11.4,-9.2c-5.1,0 -10.7,2.8 -10.7,8.6c0,5.3 4.3,7 8.5,8.1s8.5,1.6 8.5,4.7c0,2.9 -3.4,3.6 -5.5,3.6c-1.5,0.1 -2.9,-0.3 -4.2,-1.1l-7.4,0c1.8,4.1 6.5,6 11.3,6c7.8,0 11.9,-3.9 11.9,-9.2c0,-6.5 -6.4,-7.8 -8.5,-8.3z" class="st1"/>
   <rect id="svg_12" height="23" width="9.1" class="st2" y="10.599999" x="27.6"/>
   <polygon id="svg_13" points="13.699996948242188,38.20000076293945 13.699996948242188,0 22.89999771118164,6 22.89999771118164,44.30000305175781 " class="st3"/>
   <rect id="svg_14" height="23" width="9.1" class="st2" y="10.599999" x="0"/>
  </g>
 </g>
</svg>