<svg width="21" height="21" xmlns="http://www.w3.org/2000/svg">
 <defs>
  <style>.cls-1{fill:#313131;}.cls-2,.cls-3{fill:none;stroke-miterlimit:10;}.cls-2{stroke:#f0f;}.cls-3{stroke:#00cf8b;stroke-width:0.59px;}</style>
 </defs>
 <g>
  <g id="svg_1">
   <path id="svg_3" d="m17.540001,17.02a27.08,27.08 0 0 0 -3.35,-1.12a2.73,2.73 0 0 1 -1.76,-2a6.35,6.35 0 0 0 1.92,-3a2.49,2.49 0 0 0 0.61,-1.44a0.83,0.83 0 0 0 -0.3,-0.68a4.46,4.46 0 0 0 -4.08,-4.6l-0.07,0a4.43,4.43 0 0 0 -4.11,4.5a0.84,0.84 0 0 0 -0.44,0.77a2.74,2.74 0 0 0 0.86,1.73a6.33,6.33 0 0 0 1.7,2.64a2.73,2.73 0 0 1 -1.76,2a11.06,11.06 0 0 0 -3.19,1.2" class="cls-3"/>
   <circle id="svg_4" r="9.780001" cy="10.5" cx="10.5" class="cls-3"/>
  </g>
 </g>
</svg>